<svg width="24" height="24" viewBox="0 0 24 24" fill="currentColor" xmlns="http://www.w3.org/2000/svg">
<path d="M12.707 2.39313L21.707 11.3931C22.337 12.0231 21.891 13.1001 21 13.1001H20V19.1001C20 19.8958 19.684 20.6588 19.1214 21.2214C18.5588 21.7841 17.7957 22.1001 17 22.1001H15.5002V15.1001C15.5003 14.3349 15.2962 14.1001 14.5002 14.1001C13.0002 14.1001 14.0002 14.1001 13.0002 14.1001H12.0002H11.0002C10.2046 14.1001 9.00024 14.1001 9.00024 14.1001C9.00024 14.1001 8.50024 14 8.50024 15.1001V22.1001H7.00004C6.20439 22.1001 5.44133 21.7841 4.87872 21.2214C4.31611 20.6588 4.00004 19.8958 4.00004 19.1001V13.1001H3.00004C2.11004 13.1001 1.66304 12.0231 2.29304 11.3931L11.293 2.39313C11.4806 2.20566 11.7349 2.10034 12 2.10034C12.2652 2.10034 12.5195 2.20566 12.707 2.39313Z" fill="currentColor"/>
</svg>
